#N canvas 642 62 538 461 10;
#X obj 335 71 list prepend broadcast;
#X obj 335 93 list trim;
#X obj 335 44 iemnet/tcpserver 44101;
#X msg 175 45 debug \$1;
#X floatatom 164 20 5 0 0 0 - - -;
#X obj 286 91 t a a;
#X obj 320 248 print aaa;
#X obj 321 226 spigot;
#X obj 377 227 tgl 15 0 empty empty empty 17 7 0 10 -262144 -1 -1 0
1;
#X connect 0 0 1 0;
#X connect 1 0 5 0;
#X connect 2 0 0 0;
#X connect 3 0 2 0;
#X connect 4 0 3 0;
#X connect 5 0 2 0;
#X connect 5 1 7 0;
#X connect 7 0 6 0;
#X connect 8 0 7 1;
