#N canvas 241 49 538 461 10;
#X msg 433 315 disconnect;
#X msg 204 173 connect localhost 44100;
#X obj 335 71 list prepend broadcast;
#X obj 335 93 list trim;
#X obj 298 62 t a;
#X obj 57 159 osc/packOSC;
#X obj 57 299 osc/unpackOSC;
#X obj 57 321 osc/routeOSC /metro;
#X obj 57 345 osc/routeOSC /interval;
#X obj 57 88 metro 10;
#X obj 57 14 bng 15 250 50 0 empty empty empty 17 7 0 10 -262144 -1
-1;
#X text 78 13 <- make pd crash;
#X obj 204 146 loadbang;
#X obj 57 397 b;
#X obj 57 277 mrpeach/slipdec;
#X obj 57 181 mrpeach/slipenc;
#X obj 57 235 iemnet/tcpclient;
#X obj 335 44 iemnet/tcpserver 44100;
#X obj 57 111 random 100;
#X msg 57 135 /metro/interval \$1;
#X floatatom 57 370 5 0 0 0 - - -;
#X obj 433 356 print -n;
#X obj 57 418 del 1000;
#X text 97 368 <- do we still receive something?;
#X text 123 414 <- disconnect if not;
#X obj 99 63 tgl 15 0 empty empty empty 17 7 0 10 -262144 -1 -1 1 1
;
#X msg 307 232 info;
#X obj 433 278 spigot;
#X obj 465 256 tgl 15 0 empty empty empty 17 7 0 10 -262144 -1 -1 0
1;
#X connect 0 0 16 0;
#X connect 0 0 21 0;
#X connect 1 0 16 0;
#X connect 2 0 3 0;
#X connect 3 0 4 0;
#X connect 4 0 17 0;
#X connect 5 0 15 0;
#X connect 6 0 7 0;
#X connect 7 0 8 0;
#X connect 8 0 20 0;
#X connect 9 0 18 0;
#X connect 10 0 9 0;
#X connect 12 0 1 0;
#X connect 13 0 22 0;
#X connect 14 0 6 0;
#X connect 15 0 16 0;
#X connect 16 0 14 0;
#X connect 17 0 2 0;
#X connect 18 0 19 0;
#X connect 19 0 5 0;
#X connect 20 0 13 0;
#X connect 22 0 27 0;
#X connect 25 0 9 0;
#X connect 26 0 16 0;
#X connect 27 0 0 0;
#X connect 28 0 27 1;
