#N canvas 162 172 680 297 12;
#X obj 20 85 tcpreceive 9997;
#X text 10 10 tcpreceive receives bytes over a tcp connection.;
#X msg 20 49 port 10000;
#X text 134 84 1st argument: port number;
#X text 102 48 reset port number;
#X floatatom 54 218 3 0 0 0 - - -;
#X floatatom 108 218 3 0 0 0 - - -;
#X floatatom 81 218 3 0 0 0 - - -;
#X obj 54 167 unpack f f f f f;
#X floatatom 135 218 3 0 0 0 - - -;
#X floatatom 163 192 6 0 0 0 - - -;
#X text 161 218 ip;
#X text 209 192 port;
#X text 178 168 from;
#X obj 20 250 print tcpreceive:received;
#X floatatom 88 140 3 0 0 0 - - -;
#X text 114 140 connections;
#X obj 122 117 s \$0.tcpreceive.o3;
#X obj 253 222 spigot;
#X obj 292 202 tgl 15 0 empty empty enable_print 17 7 0 10 -24198 -258699
-45076 1 1;
#X obj 253 177 r \$0.tcpreceive.o3;
#X obj 253 248 print tcpreceive:status;
#X floatatom 483 121 3 0 0 0 - - -;
#X floatatom 537 121 3 0 0 0 - - -;
#X floatatom 510 121 3 0 0 0 - - -;
#X obj 483 41 route address;
#X obj 483 70 unpack f f f f f;
#X floatatom 564 121 3 0 0 0 - - -;
#X floatatom 592 95 6 0 0 0 - - -;
#X text 590 121 ip;
#X text 638 95 port;
#X obj 483 15 r \$0.tcpreceive.o3;
#X obj 483 165 r \$0.tcpreceive.o3;
#X obj 483 191 route port;
#X floatatom 483 217 6 0 0 0 - - -;
#X text 532 217 port;
#X connect 0 0 14 0;
#X connect 0 1 8 0;
#X connect 0 2 15 0;
#X connect 0 3 17 0;
#X connect 2 0 0 0;
#X connect 8 0 5 0;
#X connect 8 1 7 0;
#X connect 8 2 6 0;
#X connect 8 3 9 0;
#X connect 8 4 10 0;
#X connect 18 0 21 0;
#X connect 19 0 18 1;
#X connect 20 0 18 0;
#X connect 25 0 26 0;
#X connect 26 0 22 0;
#X connect 26 1 24 0;
#X connect 26 2 23 0;
#X connect 26 3 27 0;
#X connect 26 4 28 0;
#X connect 31 0 25 0;
#X connect 32 0 33 0;
#X connect 33 0 34 0;
