#N canvas 512 227 613 300 10;
#X obj 60 73 inlet;
#X obj 116 174 udpclient;
#X obj 43 249 outlet conn?;
#X obj 145 258 outlet data;
#X obj 260 270 outlet status;
#X obj 60 105 t a a;
#X obj 60 127 route status;
#X obj 216 65 route connect disconnect;
#X obj 116 196 t l l;
#N canvas 5 49 450 300 received 0;
#X obj 101 65 inlet;
#X obj 101 87 list length;
#X obj 101 131 delay 0;
#X obj 190 172 +;
#X obj 190 194 t f f;
#X obj 130 223 f;
#X obj 130 195 t b f;
#X msg 101 153 0;
#X obj 101 109 t b f f;
#X obj 130 275 outlet received;
#X msg 130 245 received \$1;
#X obj 350 172 +;
#X obj 350 194 t f f;
#X obj 290 223 f;
#X obj 236 54 inlet;
#X msg 290 245 total \$1;
#X obj 236 76 route bang reset;
#X msg 290 112 0;
#X connect 0 0 1 0;
#X connect 1 0 8 0;
#X connect 2 0 7 0;
#X connect 3 0 4 0;
#X connect 4 0 5 1;
#X connect 4 1 3 1;
#X connect 5 0 10 0;
#X connect 6 0 5 0;
#X connect 6 1 3 1;
#X connect 7 0 6 0;
#X connect 8 0 2 0;
#X connect 8 1 3 0;
#X connect 8 2 11 0;
#X connect 10 0 9 0;
#X connect 11 0 12 0;
#X connect 12 0 13 1;
#X connect 12 1 11 1;
#X connect 13 0 15 0;
#X connect 14 0 16 0;
#X connect 15 0 9 0;
#X connect 16 0 13 0;
#X connect 16 1 17 0;
#X connect 17 0 12 0;
#X restore 260 241 pd received;
#X obj 60 149 t b;
#X obj 216 90 t b;
#X msg 216 112 reset;
#X connect 0 0 5 0;
#X connect 1 0 8 0;
#X connect 1 2 2 0;
#X connect 5 0 6 0;
#X connect 5 1 7 0;
#X connect 6 0 10 0;
#X connect 6 1 1 0;
#X connect 7 0 11 0;
#X connect 7 1 11 0;
#X connect 8 0 3 0;
#X connect 8 1 9 0;
#X connect 9 0 4 0;
#X connect 10 0 9 1;
#X connect 11 0 12 0;
#X connect 12 0 9 1;
