#N canvas 1056 425 858 382 12;
#X floatatom 88 159 5 0 0 0 - - -;
#X floatatom 112 189 5 0 0 0 - - -;
#X floatatom 136 239 3 0 0 0 - - -;
#X floatatom 163 239 3 0 0 0 - - -;
#X floatatom 190 239 3 0 0 0 - - -;
#X floatatom 217 239 3 0 0 0 - - -;
#X text 99 238 from;
#X text 4 159 connections;
#X msg 65 31 broadcast 1 2 3;
#X text 183 32 send to all clients;
#X text 42 189 on socket;
#X text 172 125 argument is port number;
#X text 62 350 ***WARNING*** Attempting to print long messages can
hang pd!;
#X obj 65 290 spigot;
#X obj 104 270 tgl 15 0 empty empty enable_print 17 7 0 10 -24198 -258699
-45076 0 1;
#X text 64 333 Received messages are output as stream of bytes;
#X msg 80 64 11 216 43;
#X obj 314 288 spigot;
#X obj 353 268 tgl 15 0 empty empty enable_print 17 7 0 10 -24198 -258699
-45076 0 1;
#N canvas 441 249 837 565 getting.info 0;
#X obj 359 61 route client;
#X floatatom 93 431 3 0 0 0 - - -;
#X floatatom 147 431 3 0 0 0 - - -;
#X floatatom 120 431 3 0 0 0 - - -;
#X obj 93 351 route address;
#X obj 93 380 unpack f f f f f;
#X floatatom 174 431 3 0 0 0 - - -;
#X floatatom 202 405 6 0 0 0 - - -;
#X text 200 431 ip;
#X text 248 405 port;
#X text 361 291 info about current inqueue/outqueue;
#X text 354 435 NOTE: outlets #3 and #4 are for compatibility with
mrpeach's net obects. You can get all information via outlet #5 as
well;
#X obj 93 325 r \$0.udpserver.o5;
#X obj 359 35 r \$0.udpserver.o5;
#X obj 359 86 list split 1;
#X floatatom 436 113 5 0 0 1 client.no - -;
#X obj 357 139 route address last_seen bufsize;
#X obj 357 204 unpack s 0;
#X symbolatom 357 249 10 0 0 2 address - -;
#X floatatom 424 229 5 0 0 0 - - -;
#X floatatom 443 167 0 0 0 1 [ms] - -;
#X obj 569 173 unpack;
#X floatatom 569 218 5 0 0 1 insize[bytes] - -;
#X floatatom 610 198 5 0 0 1 outsize[byte] - -;
#X obj 357 115 list trim;
#X obj 60 155 s \$0.udpserver;
#X msg 60 72 bang;
#X msg 81 102 client;
#X connect 0 0 14 0;
#X connect 4 0 5 0;
#X connect 5 0 1 0;
#X connect 5 1 3 0;
#X connect 5 2 2 0;
#X connect 5 3 6 0;
#X connect 5 4 7 0;
#X connect 12 0 4 0;
#X connect 13 0 0 0;
#X connect 14 0 15 0;
#X connect 14 1 24 0;
#X connect 16 0 17 0;
#X connect 16 1 20 0;
#X connect 16 2 21 0;
#X connect 17 0 18 0;
#X connect 17 1 19 0;
#X connect 21 0 22 0;
#X connect 21 1 23 0;
#X connect 24 0 16 0;
#X connect 26 0 25 0;
#X connect 27 0 25 0;
#X restore 540 236 pd getting.info;
#X text 533 306 copyright (c) 2009 Martin Peach;
#X text 533 323 copyright (c) 2010 Roman Haefeli;
#X text 533 340 copyright (c) 2010 IOhannes m zmoelnig;
#X text 520 74 check also:;
#X text 31 6 [udpserver] waits for clients to connect to its port.
;
#X obj 65 126 udpserver 9997;
#X obj 523 96 udpreceive;
#X obj 523 121 udpclient;
#X obj 160 153 s \$0.udpserver.o5;
#X obj 314 243 r \$0.udpserver.o5;
#X obj 136 216 unpack f f f f f;
#X floatatom 245 240 6 0 0 0 - - -;
#X obj 65 313 print udpserver:received;
#X obj 314 314 print udpserver:status;
#X text 155 64 or without 'broadcast' selector;
#X msg 100 99 port 10000;
#X text 182 98 reset port number;
#X msg 337 178 disconnect;
#X msg 374 152 client;
#X msg 337 208 disconnect;
#X obj 367 105 r \$0.udpserver;
#X connect 8 0 25 0;
#X connect 13 0 32 0;
#X connect 14 0 13 1;
#X connect 16 0 25 0;
#X connect 17 0 33 0;
#X connect 18 0 17 1;
#X connect 25 0 13 0;
#X connect 25 1 0 0;
#X connect 25 2 1 0;
#X connect 25 3 30 0;
#X connect 25 4 28 0;
#X connect 29 0 17 0;
#X connect 30 0 2 0;
#X connect 30 1 3 0;
#X connect 30 2 4 0;
#X connect 30 3 5 0;
#X connect 30 4 31 0;
#X connect 35 0 25 0;
#X connect 37 0 25 0;
#X connect 38 0 25 0;
#X connect 39 0 25 0;
#X connect 40 0 25 0;
