#N canvas 139 114 832 501 10;
#X obj 94 27 inlet on/off;
#X obj 94 119 metro 100;
#X obj 94 336 outlet data;
#X obj 252 29 inlet packetsize;
#N canvas 9 49 701 343 makepacket 0;
#X obj 120 19 inlet value;
#X obj 328 22 inlet length;
#X obj 328 44 i 10;
#X obj 421 21 loadbang;
#X obj 328 66 t f b;
#X obj 328 88 until;
#X msg 120 170 list;
#X msg 328 110 adddollar 1;
#X obj 70 290 outlet;
#X floatatom 391 54 5 0 0 0 - - -;
#X msg 419 112 set list;
#X connect 0 0 6 0;
#X connect 1 0 2 0;
#X connect 2 0 4 0;
#X connect 3 0 2 0;
#X connect 4 0 5 0;
#X connect 4 1 10 0;
#X connect 5 0 7 0;
#X connect 6 0 8 0;
#X connect 7 0 6 0;
#X connect 9 0 2 0;
#X connect 10 0 6 0;
#X restore 94 191 pd makepacket;
#N canvas 6 49 450 300 count 0;
#X obj 106 68 i;
#X obj 106 110 + 1;
#X obj 106 90 % 255;
#X obj 106 132 t f f;
#X obj 106 36 inlet;
#X obj 106 154 outlet;
#X obj 198 33 inlet value;
#X connect 0 0 2 0;
#X connect 1 0 3 0;
#X connect 2 0 1 0;
#X connect 3 0 5 0;
#X connect 3 1 0 1;
#X connect 4 0 0 0;
#X connect 6 0 0 1;
#X restore 94 168 pd count 1..255;
#X obj 94 89 t f f;
#X obj 94 213 t l l;
#X obj 504 32 inlet rate;
#X obj 95 49 route float bang;
#X obj 177 124 t b;
#X connect 0 0 9 0;
#X connect 1 0 5 0;
#X connect 3 0 4 1;
#X connect 4 0 7 0;
#X connect 5 0 4 0;
#X connect 6 0 1 0;
#X connect 7 0 2 0;
#X connect 8 0 1 1;
#X connect 9 0 6 0;
#X connect 9 1 10 0;
#X connect 10 0 5 0;
