#N canvas 435 282 841 595 10;
#X obj 106 234 udpsend;
#X obj 106 24 tgl 15 0 empty empty empty 17 7 0 10 -262144 -1 -1 0
1;
#X obj 106 46 metro 100;
#X floatatom 180 48 5 0 0 0 - - -;
#X floatatom 206 151 5 1 65535 0 - - -;
#X obj 151 336 t l l;
#X obj 183 356 list length;
#X obj 206 170 t f f;
#X obj 151 400 t f f;
#X obj 151 422 -;
#X obj 151 514 +;
#X obj 112 536 spigot;
#X obj 112 558 print oops;
#X obj 183 378 != 10;
#X msg 151 493 1;
#X msg 182 494 0;
#X obj 151 447 select 1 -254;
#X msg 394 144 2 \$1;
#X obj 394 166 pow;
#X floatatom 394 188 0 0 0 0 - - -;
#X floatatom 386 55 5 0 0 0 - - -;
#X obj 112 294 udpreceive 9999;
#X msg 171 233 disconnect \, connect localhost 9999;
#X obj 106 79 i 1;
#X obj 106 101 until;
#X floatatom 147 76 5 0 0 0 - - -;
#X obj 316 336 t b b;
#X obj 316 358 del 100;
#X msg 316 380 0;
#X obj 316 402 t f;
#X msg 347 382 1;
#X obj 316 424 change;
#X floatatom 316 446 5 0 0 0 - - -;
#X obj 106 127 ../packetgenerator;
#X floatatom 275 301 5 0 0 0 - - -;
#X obj 106 147 t l l;
#X obj 133 184 ../bandwidth;
#X symbolatom 133 206 10 0 0 0 - - -;
#X obj 112 317 t l l b l;
#X obj 391 319 ../bandwidth;
#X symbolatom 391 341 10 0 0 0 - - -;
#X connect 1 0 2 0;
#X connect 2 0 23 0;
#X connect 3 0 2 1;
#X connect 4 0 7 0;
#X connect 5 0 8 0;
#X connect 5 1 6 0;
#X connect 6 0 13 0;
#X connect 7 0 33 1;
#X connect 7 1 13 1;
#X connect 8 0 9 1;
#X connect 8 1 9 0;
#X connect 9 0 16 0;
#X connect 10 0 11 1;
#X connect 11 0 12 0;
#X connect 13 0 10 1;
#X connect 14 0 10 0;
#X connect 15 0 10 0;
#X connect 16 0 15 0;
#X connect 16 1 15 0;
#X connect 16 2 14 0;
#X connect 17 0 18 0;
#X connect 18 0 19 0;
#X connect 20 0 17 0;
#X connect 21 0 34 0;
#X connect 21 0 38 0;
#X connect 22 0 0 0;
#X connect 23 0 24 0;
#X connect 24 0 33 0;
#X connect 25 0 23 1;
#X connect 26 0 27 0;
#X connect 26 1 30 0;
#X connect 27 0 28 0;
#X connect 28 0 29 0;
#X connect 29 0 31 0;
#X connect 30 0 29 0;
#X connect 31 0 32 0;
#X connect 33 0 35 0;
#X connect 35 0 0 0;
#X connect 35 1 36 0;
#X connect 36 0 37 0;
#X connect 38 0 11 0;
#X connect 38 1 5 0;
#X connect 38 2 26 0;
#X connect 38 3 39 0;
#X connect 39 0 40 0;
