#N canvas 1298 426 599 289 10;
#X obj 77 93 list prepend broadcast;
#X obj 77 115 list trim;
#X obj 77 36 tcpserver 44100;
#X obj 19 53 t a a a;
#X obj 77 56 t a a a;
#X obj 212 169 select 255;
#X obj 212 189 sprint =======================;
#X obj 126 56 sprint TCPSERVER;
#X connect 0 0 1 0;
#X connect 1 0 3 0;
#X connect 2 0 4 0;
#X connect 3 1 2 0;
#X connect 4 0 5 0;
#X connect 4 1 0 0;
#X connect 4 2 7 0;
#X connect 5 0 6 0;
