#N canvas 2026 49 530 584 10;
#X msg 5 222 disconnect;
#X msg 46 107 connect localhost 44100;
#X obj 46 285 tcpclient;
#X obj 148 391 list prepend;
#X obj 46 322 sel 255;
#X obj 85 429 list append;
#X obj 165 469 list length;
#X obj 85 468 t a a;
#X obj 165 491 sel 30;
#X obj 198 566 print ERROR;
#X msg 198 545 byte count wrong: \$1 bytes;
#X obj 46 81 metro 1000;
#X obj 46 344 t b b b;
#X obj 46 34 tgl 15 0 empty empty empty 17 7 0 10 -262144 -1 -1 0 1
;
#X floatatom 135 47 5 0 0 0 - - -;
#X obj 46 262 t a a;
#X msg 399 44 bang;
#X obj 399 64 print foo;
#X obj 340 429 i;
#X obj 340 449 + 1;
#X obj 340 469 t f f;
#X floatatom 340 489 5 0 0 0 - - -;
#X obj 317 56 metro 1000;
#X obj 317 76 bng 15 250 50 0 empty empty empty 17 7 0 10 -262144 -1
-1;
#X obj 317 33 tgl 15 0 empty empty empty 17 7 0 10 -262144 -1 -1 0
1;
#X msg 137 25 10;
#X floatatom 78 181 5 0 0 0 - - -;
#X obj 78 220 payload;
#X obj 198 519 t f b b;
#X msg 256 516 0;
#X obj 135 64 t f f;
#X obj 176 80 print timmms;
#X obj 46 305 t a a;
#X obj 78 200 sel 1 0;
#X obj 148 410 t a a;
#X obj 86 262 sprint TCPCLIENT;
#X obj 89 304 sprint CLIENTrec;
#X obj 85 526 sprint packet 1;
#X connect 0 0 15 0;
#X connect 1 0 15 0;
#X connect 2 0 32 0;
#X connect 2 2 26 0;
#X connect 3 0 34 0;
#X connect 4 0 12 0;
#X connect 4 1 3 0;
#X connect 5 0 7 0;
#X connect 6 0 8 0;
#X connect 7 0 37 0;
#X connect 7 1 6 0;
#X connect 8 1 28 0;
#X connect 10 0 9 0;
#X connect 11 0 1 0;
#X connect 12 0 0 0;
#X connect 12 1 5 1;
#X connect 12 1 3 1;
#X connect 12 2 5 0;
#X connect 13 0 11 0;
#X connect 14 0 30 0;
#X connect 15 0 2 0;
#X connect 15 1 35 0;
#X connect 16 0 17 0;
#X connect 18 0 19 0;
#X connect 19 0 20 0;
#X connect 20 0 21 0;
#X connect 20 1 18 1;
#X connect 22 0 23 0;
#X connect 24 0 22 0;
#X connect 25 0 14 0;
#X connect 26 0 33 0;
#X connect 27 0 15 0;
#X connect 28 0 10 0;
#X connect 28 1 18 0;
#X connect 28 2 29 0;
#X connect 30 0 11 1;
#X connect 30 1 31 0;
#X connect 32 0 4 0;
#X connect 32 1 36 0;
#X connect 33 0 27 0;
#X connect 33 1 34 0;
#X connect 34 0 5 1;
#X connect 34 1 3 1;
