#N canvas 4 49 450 300 10;
#X obj 74 144 spigot;
#X obj 100 100 tgl 15 0 \$0-spigot \$0-spigot empty 17 7 0 10 -262144
-1 -1 0 1;
#X obj 141 134 r \$0-spigot;
#X obj 74 53 inlet;
#X obj 74 164 print \$1;
#X obj 227 37 loadbang;
#X obj 227 57 list prepend \$2;
#X obj 227 77 route float;
#X obj 227 97 s \$0-spigot;
#X obj 354 31 inlet;
#X connect 0 0 4 0;
#X connect 2 0 0 1;
#X connect 3 0 0 0;
#X connect 5 0 6 0;
#X connect 6 0 7 0;
#X connect 7 0 8 0;
#X connect 9 0 7 0;
#X coords 0 -1 1 1 15 15 1 100 100;
